<svg width="256" height="64"
    xmlns="http://www.w3.org/2000/svg">
    <!-- Yellow Rectangle with Rounded Corners -->
    <rect x="0" y="0" width="100%" height="100%" fill="black" />

    <!-- Text -->
    <text x="50%" y="50%" dominantBaseline="middle" textAnchor="middle" fill="white" fontSize="24" fontWeight="bold">
    NEXT js
    </text>

    <g stroke="rgba(255, 255, 255, 0.5)">
        <line x1="0" y1="10" x2="256" y2="10" strokeWidth="0.3" />
        <line x1="0" y1="20" x2="256" y2="20" strokeWidth="0.3" />
        <line x1="0" y1="30" x2="256" y2="30" strokeWidth="0.3" />
        <line x1="0" y1="40" x2="256" y2="40" strokeWidth="0.3" />
        <line x1="0" y1="50" x2="256" y2="50" strokeWidth="0.3" />
        <line x1="0" y1="60" x2="256" y2="60" strokeWidth="0.3" />
    </g>

    <!-- Vertical Lines -->
    <g stroke="rgba(255, 255, 255, 0.5)">
        <line x1="25" y1="0" x2="25" y2="64" strokeWidth="0.3" />
        <line x1="50" y1="0" x2="50" y2="64" strokeWidth="0.3" />
        <line x1="75" y1="0" x2="75" y2="64" strokeWidth="0.3" />
        <line x1="100" y1="0" x2="100" y2="64" strokeWidth="0.3" />
        <line x1="125" y1="0" x2="125" y2="64" strokeWidth="0.3" />
        <line x1="150" y1="0" x2="150" y2="64" strokeWidth="0.3" />
        <line x1="175" y1="0" x2="175" y2="64" strokeWidth="0.3" />
        <line x1="200" y1="0" x2="200" y2="64" strokeWidth="0.3" />
        <line x1="225" y1="0" x2="225" y2="64" strokeWidth="0.3" />
        <line x1="250" y1="0" x2="250" y2="64" strokeWidth="0.3" />
        <!-- Add more lines as needed -->
    </g>
</svg>


